<svg width="1024" height="1024" viewBox="0 0 1024 1024" fill="none" xmlns="http://www.w3.org/2000/svg">
  <rect width="1024" height="1024" rx="228" fill="#FFF4DF"/>
  <rect x="58" y="58" width="908" height="908" rx="190" fill="#FF8A1F"/>
  <path d="M746 129C626 139 548 196 520 290C650 284 733 223 746 129Z" fill="#10705C"/>
  <path d="M783 258C682 259 606 303 568 386C684 397 762 342 783 258Z" fill="#0A5D4D"/>
  <circle cx="504" cy="544" r="328" fill="#FFE8C1"/>
  <circle cx="504" cy="544" r="277" fill="#FFB24C"/>
  <circle cx="504" cy="544" r="218" fill="#FFF4DF"/>
  <path d="M504 278V809" stroke="#FF8A1F" stroke-width="34" stroke-linecap="round"/>
  <path d="M238 544H770" stroke="#FF8A1F" stroke-width="34" stroke-linecap="round"/>
  <path d="M316 356L692 732" stroke="#FF8A1F" stroke-width="30" stroke-linecap="round"/>
  <path d="M692 356L316 732" stroke="#FF8A1F" stroke-width="30" stroke-linecap="round"/>
  <path d="M306 542C341 482 414 443 504 443C594 443 667 482 702 542" stroke="#1C1D22" stroke-width="54" stroke-linecap="round"/>
  <path d="M304 644C354 704 429 734 504 734C579 734 654 704 704 644" stroke="#1C1D22" stroke-width="54" stroke-linecap="round"/>
  <path d="M366 548V642" stroke="#10705C" stroke-width="34" stroke-linecap="round"/>
  <path d="M434 514V676" stroke="#10705C" stroke-width="34" stroke-linecap="round"/>
  <path d="M504 489V701" stroke="#10705C" stroke-width="34" stroke-linecap="round"/>
  <path d="M574 514V676" stroke="#10705C" stroke-width="34" stroke-linecap="round"/>
  <path d="M642 548V642" stroke="#10705C" stroke-width="34" stroke-linecap="round"/>
  <path d="M255 328C299 276 367 240 456 228" stroke="#1C1D22" stroke-width="38" stroke-linecap="round"/>
  <path d="M754 760C705 817 633 852 538 861" stroke="#1C1D22" stroke-width="38" stroke-linecap="round"/>
</svg>
